<svg width="59" height="54" viewBox="0 0 59 54" fill="none" xmlns="http://www.w3.org/2000/svg">
<path d="M39.0008 72.3762C56.9504 72.3762 71.5015 57.8251 71.5015 39.8755C71.5015 21.9258 56.9504 7.37479 39.0008 7.37479C21.0512 7.37479 6.50012 21.9258 6.50012 39.8755C6.50012 57.8251 21.0512 72.3762 39.0008 72.3762Z" stroke="#5AC0CF" stroke-width="6.50014" stroke-linecap="round" stroke-linejoin="round"/>
<path d="M39.0009 59.3759C49.7707 59.3759 58.5013 50.6453 58.5013 39.8755C58.5013 29.1057 49.7707 20.3751 39.0009 20.3751C28.2311 20.3751 19.5005 29.1057 19.5005 39.8755C19.5005 50.6453 28.2311 59.3759 39.0009 59.3759Z" stroke="#5AC0CF" stroke-width="6.50014" stroke-linecap="round" stroke-linejoin="round"/>
<path d="M39.0007 46.3756C42.5907 46.3756 45.5009 43.4654 45.5009 39.8755C45.5009 36.2856 42.5907 33.3754 39.0007 33.3754C35.4108 33.3754 32.5006 36.2856 32.5006 39.8755C32.5006 43.4654 35.4108 46.3756 39.0007 46.3756Z" stroke="#5AC0CF" stroke-width="6.50014" stroke-linecap="round" stroke-linejoin="round"/>
</svg>
